<?xml version="1.0" standalone="no"?>
<!DOCTYPE svg PUBLIC "-//W3C//DTD SVG 20010904//EN"
 "http://www.w3.org/TR/2001/REC-SVG-20010904/DTD/svg10.dtd">
<svg version="1.0" xmlns="http://www.w3.org/2000/svg"
 width="474.000000pt" height="274.000000pt" viewBox="0 0 474.000000 274.000000"
 preserveAspectRatio="xMidYMid meet">
<metadata>
Created by potrace 1.16, written by Peter Selinger 2001-2019
</metadata>
<g transform="translate(0.000000,274.000000) scale(0.100000,-0.100000)"
fill="#000000" stroke="none">
<path d="M358 2717 c-14 -19 -19 -20 -37 -9 -28 16 -34 15 -27 -4 4 -9 1 -23
-6 -31 -9 -11 -9 -16 3 -23 8 -5 14 -15 14 -22 1 -7 6 -12 13 -10 7 1 12 -5
12 -13 0 -18 12 -19 28 -3 9 9 12 7 12 -10 0 -20 5 -22 50 -22 37 0 50 -4 50
-15 0 -7 6 -18 13 -22 8 -4 16 -16 20 -25 5 -15 0 -18 -26 -19 -18 -1 -5 -5
28 -8 66 -8 105 -4 105 10 0 5 -5 9 -12 9 -6 0 -1 11 12 24 13 15 20 32 17 40
-9 23 -22 20 -35 -8 -7 -15 -21 -25 -41 -28 -23 -3 -28 -2 -20 8 10 12 -6 32
-18 21 -3 -3 -11 0 -18 6 -11 10 -10 15 6 27 19 15 19 16 -1 53 -24 44 -25 63
-5 71 36 13 11 26 -52 26 -58 -1 -70 -4 -85 -23z"/>
<path d="M2036 2725 c-3 -8 -3 -21 0 -29 3 -8 -2 -16 -13 -19 -15 -3 -13 -6
10 -15 15 -6 27 -16 27 -22 0 -16 -22 -12 -36 7 -7 10 -15 15 -18 12 -4 -3 3
-17 14 -31 21 -27 18 -38 -11 -38 -13 0 -18 -11 -21 -51 -2 -32 1 -53 9 -58 9
-5 9 -17 1 -50 -10 -39 -9 -46 7 -57 26 -19 28 -18 49 16 9 17 26 39 37 49 20
18 22 52 6 79 -6 8 -1 12 15 13 17 1 18 3 6 6 -19 5 -25 33 -8 33 5 0 6 8 3
18 -6 14 -4 15 9 4 9 -7 20 -12 24 -11 5 1 24 1 42 0 l33 -1 -34 -42 c-51 -63
-56 -78 -53 -147 3 -59 2 -63 -23 -73 -14 -6 -28 -12 -31 -12 -3 -1 -11 -5
-19 -10 -9 -6 -18 -3 -27 8 -13 19 -27 7 -19 -16 4 -9 -2 -14 -15 -15 -13 -1
-22 6 -26 23 -3 13 -10 24 -15 24 -5 0 -9 6 -9 13 -1 13 -34 57 -44 57 -12 0
-5 -48 8 -59 19 -16 36 -97 36 -170 0 -45 -5 -64 -25 -91 -26 -35 -35 -64 -13
-42 17 17 26 15 33 -8 5 -16 9 -17 20 -7 12 10 12 14 -1 23 -18 14 -9 41 17
49 11 4 17 11 14 16 -4 5 -2 9 3 9 5 0 18 17 28 38 19 37 19 37 22 10 4 -34
18 -36 24 -5 6 34 -33 82 -61 74 -27 -7 -29 19 -2 28 24 7 51 -4 51 -21 0 -19
10 -18 27 4 12 15 13 11 9 -30 -4 -49 7 -61 32 -36 6 6 15 9 18 5 9 -9 -4 -39
-15 -33 -5 3 -14 -9 -21 -27 -7 -17 -16 -41 -20 -52 -5 -11 -12 -35 -15 -54
-6 -26 -4 -32 6 -29 8 3 14 11 14 19 0 8 12 25 28 37 15 13 27 32 27 42 0 10
7 23 15 30 8 7 15 17 15 22 0 5 15 24 33 41 29 28 33 36 26 61 -5 17 -6 32 -4
35 3 2 5 -1 5 -7 0 -6 6 -9 14 -6 7 3 13 11 13 17 0 7 1 23 1 36 2 23 3 23 20
8 25 -22 39 -21 45 3 6 22 -8 28 -16 8 -4 -10 -6 -10 -6 0 -1 7 6 15 14 18 8
4 12 11 8 18 -11 17 -10 70 2 78 17 13 31 8 14 -5 -14 -10 -14 -14 -3 -25 8
-7 14 -10 14 -6 0 3 7 1 15 -6 12 -10 15 -9 15 5 0 14 3 15 14 6 11 -9 18 -6
34 16 11 15 23 25 27 21 4 -4 -14 -27 -39 -51 -25 -25 -46 -53 -46 -62 0 -9
-7 -30 -16 -47 -15 -29 -15 -35 2 -87 11 -31 24 -67 31 -80 13 -26 8 -45 -8
-36 -5 4 -9 13 -9 21 0 8 -5 14 -11 14 -6 0 -8 -9 -3 -22 13 -41 10 -61 -11
-64 -11 -2 -25 4 -32 12 -7 10 -13 12 -18 4 -4 -6 -1 -17 5 -25 14 -16 5 -35
-16 -35 -20 0 -19 -69 1 -77 17 -6 47 26 39 39 -3 5 -1 8 5 8 5 0 12 -4 16
-10 3 -5 12 -7 20 -3 9 3 15 -1 15 -11 0 -18 -15 -22 -25 -6 -9 15 -22 12 -29
-6 -5 -14 -4 -15 9 -4 12 10 15 10 15 -3 0 -8 5 -17 12 -19 15 -5 1 -28 -18
-28 -8 0 -17 7 -20 15 -4 8 -10 12 -15 9 -5 -3 -2 -13 7 -22 16 -15 16 -17 -1
-27 -10 -5 -31 -21 -46 -33 l-29 -24 0 25 c0 13 -7 30 -15 37 -8 7 -19 27 -24
44 l-9 31 -1 -29 c-1 -17 8 -39 19 -51 11 -12 21 -32 22 -46 1 -26 -35 -94
-56 -102 -7 -3 -16 -19 -19 -35 -5 -23 -13 -32 -36 -37 -19 -4 -37 -18 -48
-35 -9 -16 -26 -32 -37 -35 -30 -9 -135 -11 -129 -2 2 4 -2 7 -10 7 -8 0 -18
-7 -21 -15 -5 -14 -8 -14 -31 1 -24 16 -27 16 -45 -1 -11 -10 -20 -13 -20 -8
0 6 -9 13 -20 16 -11 3 -18 1 -15 -3 3 -5 1 -11 -5 -15 -5 -3 -10 3 -10 14 0
11 -7 27 -16 35 -8 9 -11 16 -5 16 6 0 11 4 11 10 0 16 -42 60 -52 54 -4 -3
-8 -1 -8 5 0 5 5 13 11 17 8 4 7 9 -2 15 -8 4 -19 3 -26 -3 -15 -13 -18 3 -3
18 12 12 -26 58 -72 88 -20 13 -27 14 -32 4 -3 -7 -4 -3 -2 10 4 19 0 22 -30
22 -19 0 -34 5 -34 10 0 6 -9 21 -21 33 l-20 22 23 7 c22 6 22 6 -3 7 -14 1
-34 11 -45 23 -19 21 -19 21 1 13 11 -4 35 -8 52 -9 32 -1 49 -18 37 -37 -3
-5 -1 -9 5 -9 16 0 25 51 13 70 -8 14 -6 27 9 56 14 29 18 51 14 84 -6 51 -21
73 -35 50 -7 -12 -10 -11 -15 5 -4 11 -13 35 -21 53 -17 41 0 33 22 -10 8 -16
18 -27 22 -24 3 4 0 12 -6 18 -20 20 -14 23 39 23 41 0 54 4 70 24 26 32 14
45 -16 15 -26 -26 -46 -30 -75 -14 -19 10 -18 12 5 56 13 25 19 44 12 41 -7
-2 -17 -14 -24 -27 -7 -13 -21 -28 -33 -32 -18 -7 -20 -5 -15 13 5 15 4 19 -4
15 -6 -4 -11 -14 -11 -22 0 -8 -9 -14 -19 -14 -35 0 -33 19 3 41 37 22 86 97
86 132 0 12 12 33 27 49 42 44 20 44 -26 0 -24 -23 -41 -48 -41 -61 0 -47 -51
-104 -79 -87 -18 11 -22 86 -6 116 17 33 20 110 5 110 -5 0 -10 -9 -10 -20 0
-11 -4 -20 -9 -20 -5 0 -14 -13 -20 -30 -15 -46 -53 -35 -79 24 -15 33 -5 51
33 60 34 9 98 53 86 60 -12 8 -40 -3 -70 -26 -13 -10 -32 -18 -42 -18 -22 0
-39 -29 -39 -64 0 -32 -23 -34 -44 -4 -9 12 -19 19 -23 15 -12 -13 33 -62 66
-72 54 -16 92 -55 102 -105 23 -106 23 -130 3 -130 -38 0 -48 15 -29 44 10 15
13 26 6 26 -6 0 -17 -13 -25 -29 -15 -28 -17 -28 -62 -20 -26 5 -48 10 -49 12
-4 4 13 132 20 152 6 16 3 15 -14 -5 -19 -24 -26 -46 -23 -80 3 -27 -8 -60
-19 -60 -6 0 -29 18 -51 39 -38 39 -39 41 -32 93 3 29 14 65 25 80 27 38 24
42 -11 16 -17 -12 -30 -30 -30 -39 0 -10 -4 -21 -10 -24 -14 -9 -13 38 2 53 6
6 9 15 5 19 -4 4 -13 1 -19 -5 -7 -7 -20 -12 -30 -12 -15 0 -17 -5 -12 -27 7
-28 7 -28 -15 -9 -25 22 -27 46 -6 85 16 32 70 81 89 81 7 0 21 6 31 14 18 13
17 14 -10 9 -78 -13 -155 -85 -155 -145 0 -48 25 -93 59 -108 20 -8 39 -27 51
-50 28 -54 119 -111 200 -125 57 -9 63 -16 43 -56 -10 -19 -16 -42 -15 -51 4
-25 -35 -41 -84 -34 -28 3 -44 1 -46 -6 -3 -8 -13 -7 -36 4 -27 14 -33 14 -43
1 -10 -11 -10 -16 1 -23 7 -4 10 -15 7 -25 -4 -9 -3 -14 2 -10 13 7 41 -5 41
-19 0 -7 -31 -12 -92 -13 -71 -2 -98 -7 -118 -21 -14 -10 -51 -33 -83 -51 -31
-18 -55 -37 -51 -42 3 -6 -5 -7 -23 -3 -65 17 -99 -5 -109 -73 -8 -52 8 -74
73 -104 23 -10 45 -23 48 -29 3 -5 15 -10 26 -10 18 0 20 -4 13 -32 -11 -49
-10 -60 3 -65 6 -2 14 5 18 16 4 13 11 18 22 14 11 -4 14 -3 9 6 -5 8 -3 11 5
10 8 -1 26 1 41 5 50 14 56 5 45 -68 -6 -36 -13 -66 -17 -66 -3 0 -14 16 -23
35 -11 23 -24 35 -37 35 -24 0 -26 -15 -4 -28 9 -5 14 -17 13 -26 -3 -15 -11
-13 -49 17 -25 19 -79 51 -119 72 -61 30 -73 33 -68 18 14 -46 33 -91 54 -122
12 -18 20 -38 18 -45 -17 -56 -15 -64 14 -71 16 -3 32 -13 35 -22 4 -11 2 -14
-9 -9 -9 3 -15 0 -15 -8 0 -8 12 -17 27 -21 19 -4 23 -9 14 -14 -9 -6 -6 -10
10 -14 24 -7 40 8 33 28 -3 6 2 17 10 24 21 17 66 3 76 -25 7 -18 17 -24 39
-24 16 0 33 -4 36 -10 9 -14 -23 -70 -40 -70 -26 0 -36 -36 -23 -79 11 -36 38
-65 38 -42 0 5 -6 12 -12 14 -7 3 -4 6 7 6 12 1 25 -3 31 -9 22 -22 207 -18
282 5 8 3 0 20 -23 51 -19 25 -35 54 -35 65 0 53 55 122 114 143 23 8 13 19
-33 34 -28 10 -32 9 -27 -3 8 -22 -4 -19 -63 19 -29 19 -64 37 -78 41 -20 5
-23 8 -13 20 11 13 7 15 -19 15 -17 0 -31 5 -31 12 0 6 -7 20 -17 30 -9 10
-14 20 -12 22 2 2 32 1 67 -2 61 -4 64 -6 90 -46 14 -22 27 -42 27 -43 3 -6
159 -43 163 -39 2 3 -6 21 -18 41 -18 30 -27 35 -46 31 -18 -5 -22 -3 -18 9 4
8 1 15 -6 15 -8 0 -10 8 -7 21 4 16 3 18 -9 8 -7 -6 -11 -16 -7 -23 12 -18 14
-48 3 -41 -5 3 -10 13 -10 21 0 8 -5 23 -12 33 -9 15 -8 29 6 65 10 26 16 56
13 67 -6 22 27 47 38 28 4 -6 13 -8 21 -5 10 4 11 0 3 -21 -5 -14 -8 -26 -7
-27 2 -1 12 -8 22 -16 13 -10 17 -11 12 -2 -13 22 -17 62 -6 62 6 0 20 -5 31
-10 16 -9 17 -14 6 -30 -9 -16 -9 -24 1 -40 8 -13 8 -20 1 -20 -5 0 -7 -4 -4
-10 3 -5 -1 -10 -10 -10 -10 0 -15 6 -12 13 9 25 -30 16 -42 -9 -12 -27 -6
-48 10 -38 5 3 6 10 3 16 -5 8 -1 9 10 5 10 -4 19 -7 22 -7 2 0 1 -6 -2 -14
-3 -8 4 -21 16 -29 11 -8 20 -20 18 -28 -5 -21 31 -23 38 -2 3 10 10 26 15 36
5 10 7 22 4 26 -6 11 42 23 63 16 10 -3 26 -20 37 -38 11 -18 35 -39 53 -49
18 -9 47 -27 64 -41 23 -20 38 -25 59 -20 16 3 42 0 57 -6 22 -9 46 -10 98 -1
38 6 94 14 124 17 30 3 61 10 69 16 7 7 1 -12 -14 -40 -31 -60 -27 -88 13 -98
22 -5 31 -1 52 24 22 27 31 31 76 31 43 0 54 4 75 28 25 28 38 82 20 82 -6 0
-17 -13 -25 -29 -10 -19 -26 -30 -47 -35 -42 -8 -49 -8 -49 4 0 6 6 10 13 10
7 0 20 18 30 41 12 28 22 39 32 35 8 -3 17 -1 20 4 4 6 -1 10 -10 10 -12 0
-14 6 -9 28 8 33 15 41 21 25 10 -29 48 -64 86 -82 l42 -19 -37 4 c-24 2 -38
-1 -41 -10 -5 -11 2 -13 31 -10 20 3 40 8 45 13 4 4 -11 24 -33 45 -22 20 -40
41 -40 46 0 6 -8 10 -18 10 -17 0 -60 37 -54 46 1 2 2 7 2 12 0 4 -5 0 -10 -8
-5 -8 -10 -10 -10 -5 0 27 19 38 56 32 27 -4 34 -3 24 3 -8 5 -11 10 -7 10 4
0 2 6 -5 14 -7 8 -17 11 -22 9 -5 -3 -7 0 -4 8 2 7 20 14 41 15 20 0 46 9 57
19 24 22 39 13 16 -10 -9 -9 -16 -22 -16 -28 0 -7 5 -4 11 6 5 9 17 17 26 17
9 0 13 6 9 15 -6 16 38 67 49 57 3 -4 3 1 -1 11 -7 20 -18 21 -47 5 -24 -13
-36 -17 -82 -25 l-30 -5 22 23 c19 20 24 21 39 8 15 -12 16 -12 10 7 -5 17 0
26 28 42 38 23 41 21 79 -40 14 -23 15 -31 5 -48 -7 -11 -16 -20 -21 -20 -4 0
-5 -5 -1 -12 5 -8 2 -9 -10 -5 -16 6 -16 3 3 -28 22 -37 29 -81 11 -70 -5 3
-10 0 -10 -8 0 -15 20 -27 47 -27 9 0 13 6 9 15 -3 8 -1 15 3 15 5 0 11 -6 13
-12 6 -16 47 10 93 60 19 20 35 31 35 25 0 -7 -4 -13 -9 -13 -17 0 -40 -63
-30 -83 6 -10 9 -33 8 -50 -5 -75 1 -97 37 -137 37 -40 29 -54 -16 -30 -15 8
-22 4 -39 -23 -22 -35 -19 -77 5 -77 17 0 19 -17 3 -22 -9 -3 -8 -14 2 -41 10
-29 18 -37 39 -38 23 0 23 -1 5 -9 -11 -5 -14 -9 -7 -9 6 -1 12 -5 12 -11 0
-42 -95 53 -110 110 -14 52 -10 100 11 123 12 13 15 30 11 63 -3 30 2 64 14
99 10 30 15 57 12 60 -3 4 -21 -1 -39 -10 -37 -20 -83 -22 -121 -7 -22 9 -29
20 -34 51 l-6 39 -29 -17 c-16 -9 -29 -20 -29 -25 0 -5 7 -2 17 5 15 13 16 11
10 -13 -4 -15 -3 -30 3 -33 8 -5 8 -11 0 -20 -8 -9 -6 -14 6 -19 13 -5 14 -9
5 -20 -8 -10 -9 -16 -1 -21 14 -8 30 3 30 21 0 33 19 1 35 -61 15 -52 23 -66
44 -74 26 -9 26 -9 -7 -10 -18 -1 -41 3 -51 8 -13 8 -17 5 -19 -14 -1 -12 5
-28 13 -35 19 -16 19 -56 0 -64 -23 -8 -19 -46 5 -46 22 0 76 -73 66 -89 -6
-10 8 -32 47 -73 25 -26 2 -22 -25 4 -13 13 -34 24 -48 26 -25 3 -24 3 8 -28
18 -17 30 -36 27 -41 -13 -21 -13 -48 -1 -43 16 6 30 -26 17 -39 -5 -5 -21 5
-41 27 -25 27 -38 34 -55 30 -15 -4 -24 0 -29 11 -3 10 -2 14 5 10 21 -14 38
14 28 48 -5 18 -9 33 -9 34 0 2 9 3 20 3 10 0 24 9 30 20 9 16 7 27 -10 50
-22 31 -50 40 -50 17 0 -7 -9 -13 -20 -13 -17 0 -20 5 -15 31 4 26 4 27 -5 7
-10 -23 -36 -32 -27 -8 5 14 -10 36 -25 36 -11 0 -2 -60 11 -73 17 -17 13 -26
-11 -20 -17 3 -19 2 -9 -5 8 -6 11 -18 6 -31 -7 -24 12 -30 21 -7 4 11 14 6
40 -20 36 -35 37 -60 4 -49 -13 4 -31 -5 -57 -28 -21 -19 -58 -41 -82 -48 -39
-12 -45 -11 -57 6 -19 26 -7 38 32 30 31 -5 34 -4 34 17 0 34 -36 88 -59 88
-11 0 -31 -4 -45 -10 -22 -8 -25 -13 -19 -41 5 -28 4 -31 -11 -26 -43 17 -66
17 -101 3 -49 -21 -58 -20 -46 3 6 10 8 21 5 23 -2 3 6 16 20 29 23 22 26 39
5 39 -5 0 -9 -7 -9 -15 0 -8 -4 -15 -8 -15 -5 0 -14 -18 -21 -40 -6 -22 -21
-44 -32 -50 -11 -6 -17 -16 -13 -22 4 -5 1 -27 -6 -47 -10 -31 -9 -44 9 -90
11 -29 18 -58 15 -65 -3 -7 4 -24 16 -37 18 -22 21 -23 30 -6 14 22 26 22 32
-1 5 -19 -20 -42 -44 -42 -19 1 -74 54 -92 89 -25 48 -86 80 -69 36 3 -8 0
-15 -5 -15 -6 0 -13 8 -17 18 -3 9 -26 32 -50 49 l-45 33 -17 -28 c-9 -15 -25
-37 -36 -49 -19 -21 -19 -22 16 -45 22 -14 42 -39 51 -63 l16 -39 -42 39 c-23
22 -49 47 -58 55 -8 9 -24 14 -35 12 -15 -3 -12 4 16 30 20 19 44 46 53 61 17
25 17 26 -3 46 -12 12 -21 16 -21 10 0 -7 -13 -9 -37 -5 -21 4 -48 8 -60 9
-13 1 -23 5 -23 9 0 12 49 21 84 15 19 -3 38 -1 44 5 6 6 28 1 66 -17 59 -28
85 -27 92 3 3 9 18 25 35 34 16 9 29 23 29 30 0 7 18 22 40 32 48 23 47 33 -1
13 -19 -7 -40 -12 -46 -10 -7 3 -35 -3 -63 -12 -27 -9 -54 -14 -59 -10 -6 3
-52 0 -103 -6 -67 -8 -98 -16 -110 -29 -16 -17 -67 -28 -128 -28 -14 0 -34 0
-45 -1 -55 -1 -81 2 -92 11 -23 19 -13 -1 18 -36 17 -20 29 -43 27 -52 -2 -10
-19 7 -51 50 l-48 67 -26 -21 c-31 -24 -51 -25 -81 -4 -21 14 -24 14 -53 -13
-18 -15 -41 -38 -52 -50 -11 -13 -31 -23 -44 -23 -35 0 -63 18 -57 35 4 9 0
15 -10 15 -9 0 -16 -6 -16 -14 0 -11 -10 -12 -46 -5 -57 11 -67 17 -61 39 4
15 -1 18 -27 18 -57 0 -66 2 -66 17 0 13 4 14 20 5 17 -9 20 -8 20 10 0 11 -5
20 -11 20 -7 0 -8 14 -4 39 6 37 -6 63 -20 41 -9 -14 -42 -13 -48 3 -3 6 -6 2
-6 -10 -1 -12 -5 -24 -10 -28 -18 -10 -21 31 -5 63 8 18 13 36 10 41 -3 5 0
14 8 20 11 9 20 4 44 -25 l31 -37 -2 36 c-1 20 -5 37 -9 37 -5 0 -8 -5 -8 -10
0 -18 -37 12 -48 39 l-11 26 5 -25 c4 -19 3 -22 -5 -10 -6 8 -8 25 -5 37 5 17
0 25 -20 34 -22 10 -30 9 -49 -7 -47 -41 -65 -46 -92 -27 -13 10 -26 26 -29
36 -4 15 -8 17 -24 8 -15 -8 -27 -7 -49 4 -15 8 -22 15 -15 15 6 0 12 5 12 10
0 16 -46 12 -60 -5 -14 -17 -55 -21 -44 -4 4 7 0 9 -13 5 -31 -10 -54 32 -47
86 4 28 1 52 -9 70 -15 29 -27 27 -27 -4 0 -22 -8 -22 -34 -3 -19 14 -19 15
-1 35 10 11 24 20 31 20 7 0 20 21 30 48 22 61 46 82 95 82 35 0 39 2 39 26 0
16 -10 36 -26 49 -28 24 -25 45 7 45 11 0 23 8 26 18 12 32 36 42 56 24 17
-15 17 -15 11 3 -6 16 -4 17 17 11 13 -5 35 -9 49 -10 22 -1 25 4 28 37 2 20
6 37 10 37 3 0 17 -12 30 -27 21 -26 22 -26 17 -5 -4 12 -2 22 3 22 15 0 31
-25 38 -58 4 -17 13 -37 22 -44 14 -11 15 -10 8 7 -4 11 -11 41 -16 66 -14 72
-29 97 -53 91 -12 -3 -30 -13 -40 -22 -22 -21 -64 -15 -77 11 -9 16 -4 21 34
39 56 25 84 27 66 5 -7 -9 -10 -18 -7 -22 9 -8 98 18 92 27 -6 10 16 18 33 13
6 -3 12 -9 12 -14 0 -6 -4 -8 -9 -4 -18 10 -23 -16 -7 -34 9 -10 16 -23 16
-29 0 -7 5 -12 10 -12 13 0 13 27 0 35 -16 10 -12 38 4 32 17 -7 106 60 106
79 0 8 4 14 10 14 5 0 7 6 4 14 -3 8 0 17 5 21 6 3 8 11 5 17 -5 7 -2 8 6 3
10 -6 12 -4 7 8 -4 11 -2 14 9 10 7 -3 14 0 14 6 0 6 14 11 30 11 26 0 30 -4
30 -28 0 -27 15 -52 32 -52 4 0 4 9 0 21 -11 30 -2 79 14 79 8 0 14 -7 14 -15
0 -8 5 -15 10 -15 6 0 10 11 10 25 0 30 33 35 49 8 9 -16 10 -16 11 5 0 12 -8
30 -19 41 -18 18 -17 19 8 34 14 9 20 17 13 17 -8 0 -25 -9 -39 -20 -14 -11
-21 -20 -14 -20 6 0 11 -4 11 -10 0 -18 -57 -11 -83 10 -24 19 -31 20 -69 9
-44 -13 -81 -37 -73 -48 2 -4 -9 -12 -25 -18 -38 -14 -36 5 3 29 50 32 28 30
-29 -3 -35 -19 -71 -32 -95 -33 -22 0 -39 -6 -39 -12 0 -16 -29 -39 -49 -39
-25 0 -46 26 -43 52 4 26 -1 28 -29 13 -10 -6 -19 -20 -19 -30 0 -11 -7 -20
-15 -20 -8 0 -22 -12 -32 -27 -30 -49 -56 -73 -79 -73 -13 0 -26 5 -29 10 -3
6 -1 10 4 10 6 0 11 5 11 11 0 5 -16 -2 -35 -17 -29 -22 -38 -24 -50 -14 -19
16 -19 30 -1 30 8 0 18 5 22 12 4 7 3 8 -4 4 -7 -4 -12 -3 -12 3 0 5 6 11 13
14 18 7 -6 42 -28 40 -10 0 -14 4 -11 12 3 9 0 12 -10 8 -7 -3 -14 0 -14 6 0
6 5 11 10 11 15 0 12 17 -7 35 -15 16 -17 15 -29 -7 l-13 -23 -11 32 c-6 17
-18 34 -26 37 -8 3 -14 13 -14 23 0 15 2 16 11 3 8 -11 9 -9 3 10 -14 51 -24
71 -33 65 -6 -3 -4 -16 4 -32 12 -23 11 -30 -8 -64 -22 -38 -22 -38 -3 -71 11
-18 28 -39 38 -46 22 -16 24 -69 4 -91 -36 -41 -23 -150 17 -143 9 2 17 -2 17
-8 0 -6 5 -8 10 -5 6 4 9 3 8 -2 -2 -5 7 -21 19 -37 l22 -28 12 25 c8 17 19
25 37 25 25 0 26 -1 7 -17 -11 -9 -31 -38 -45 -66 -14 -27 -31 -49 -38 -47 -7
1 -15 -4 -18 -12 -5 -14 -19 -14 -122 -1 -26 3 -32 0 -32 -15 0 -11 8 -23 18
-29 16 -9 16 -10 0 -16 -12 -5 -18 -18 -18 -36 0 -27 2 -28 26 -18 15 5 29 7
32 5 5 -6 -38 -45 -50 -46 -15 0 -8 -61 7 -66 19 -8 19 -24 0 -24 -8 0 -15 -5
-15 -11 0 -7 11 -9 29 -6 30 6 61 -16 61 -43 0 -7 8 -22 17 -32 16 -18 16 -21
-1 -49 -10 -16 -16 -42 -14 -58 3 -30 -16 -61 -36 -61 -7 0 -22 -10 -34 -23
-21 -22 -22 -33 -22 -189 0 -123 3 -168 13 -172 9 -5 9 -7 0 -12 -10 -4 -13
-48 -13 -169 0 -136 3 -164 15 -169 8 -3 15 -11 14 -18 0 -10 -2 -10 -6 0 -17
43 -23 -14 -23 -238 l0 -250 884 0 c698 0 885 3 889 13 4 9 6 9 6 0 1 -9 22
-13 70 -13 46 0 71 4 75 13 5 10 7 10 12 0 7 -15 104 -18 104 -3 0 6 7 10 15
10 8 0 15 -4 15 -10 0 -7 151 -10 434 -10 l434 0 42 40 c46 44 69 48 26 5 -14
-14 -26 -30 -26 -35 0 -12 30 -14 30 -2 0 4 10 18 21 32 17 21 19 22 10 3 -6
-12 -11 -26 -11 -32 0 -8 121 -11 390 -11 253 0 390 4 390 10 0 6 -10 10 -23
10 -23 0 -47 17 -47 32 0 4 10 8 21 8 25 0 89 -37 89 -51 0 -5 10 -9 23 -9 16
0 26 9 34 30 16 42 57 42 81 0 16 -28 42 -41 42 -20 0 21 -89 117 -140 152
-30 20 -80 43 -110 51 -44 12 -49 15 -24 16 56 2 130 -28 187 -74 56 -47 107
-113 107 -140 0 -13 19 -15 115 -15 70 0 115 4 115 10 0 6 -6 10 -12 10 -7 0
3 15 22 32 35 32 35 32 38 9 2 -13 -1 -28 -7 -34 -6 -6 -11 -15 -11 -19 0 -4
97 -8 215 -8 l215 0 0 254 c0 194 -3 256 -12 259 -10 4 -10 6 0 6 14 1 17 81
3 81 -21 0 -70 -53 -77 -82 -3 -18 -20 -49 -37 -69 l-31 -36 -18 31 c-10 17
-27 51 -39 76 -21 42 -21 46 -5 90 20 57 21 55 -9 74 -17 11 -24 13 -23 4 4
-15 -22 -18 -40 -5 -16 12 -41 -18 -42 -50 0 -12 -10 -27 -21 -34 -15 -8 -18
-13 -10 -19 9 -5 8 -9 -4 -13 -9 -4 -14 -3 -10 2 3 5 0 11 -6 13 -5 2 -13 22
-16 45 -4 34 -2 44 16 59 23 20 28 44 9 44 -22 0 -41 -17 -34 -29 4 -6 -3 -15
-18 -21 -14 -5 -26 -14 -26 -20 0 -19 -72 -90 -91 -90 -25 0 -35 26 -19 45 26
31 -9 14 -38 -19 l-30 -34 -43 20 c-48 21 -141 58 -148 58 -25 0 147 -90 229
-120 36 -13 45 -21 43 -38 -2 -19 0 -20 21 -12 43 16 60 -26 33 -76 -16 -31
-16 -32 6 -39 21 -7 21 -8 -5 -12 -36 -6 -36 -23 0 -23 51 0 70 -42 29 -61
-21 -9 -28 -6 -57 23 -24 24 -35 29 -38 19 -3 -8 5 -23 18 -33 12 -10 19 -18
15 -18 -4 0 -25 14 -46 31 -21 17 -43 28 -48 25 -5 -4 -15 0 -23 7 -7 8 -19
12 -26 9 -8 -2 -28 9 -45 25 -43 40 -107 75 -123 69 -23 -9 -16 16 12 45 22
23 24 30 15 48 -19 34 -75 24 -157 -29 -19 -11 -27 -11 -58 4 -20 9 -36 23
-36 31 0 17 16 20 25 5 7 -12 85 -14 85 -2 0 4 -19 15 -42 24 -23 10 -39 20
-37 23 3 2 41 7 85 10 79 6 129 25 66 25 -20 0 -35 6 -38 15 -6 14 -8 14 -18
0 -7 -10 -30 -16 -65 -18 -48 -2 -55 1 -78 28 -33 40 -68 120 -77 175 -10 63
-21 73 -57 54 -33 -16 -32 -17 -47 51 -6 26 -5 50 1 65 l10 25 4 -22 c4 -18
11 -23 35 -23 17 0 40 -7 49 -16 18 -16 18 -15 2 25 -15 38 -15 42 0 59 10 10
17 25 17 32 0 11 3 11 12 2 8 -8 9 -15 3 -20 -6 -4 -15 -17 -22 -28 -11 -21
-10 -22 25 -18 20 1 42 10 48 19 14 19 79 17 79 -2 0 -6 3 -15 8 -19 4 -4 7
-2 7 4 0 7 11 12 25 12 35 0 190 -37 254 -61 60 -22 111 -18 112 9 2 43 22 80
60 112 4 3 9 15 13 27 6 19 0 27 -39 52 -25 16 -59 34 -75 41 -17 7 -30 17
-30 22 0 14 103 0 115 -16 6 -7 19 -15 29 -17 10 -2 24 -13 30 -24 6 -10 17
-26 25 -34 12 -13 13 -12 7 7 -3 12 -9 31 -12 42 -3 11 -1 20 5 20 5 0 12 -14
16 -31 4 -17 13 -33 21 -36 8 -3 14 -11 14 -19 0 -8 4 -14 9 -14 5 0 7 9 4 19
-9 35 45 20 91 -24 22 -22 59 -56 81 -75 22 -20 49 -56 59 -80 27 -62 35 -69
86 -75 25 -3 53 -8 63 -11 15 -5 17 3 17 76 0 52 -4 79 -10 75 -6 -4 -10 17
-10 56 0 45 -6 71 -20 95 -17 27 -19 36 -9 52 20 31 5 48 -56 61 -44 10 -55
16 -51 28 5 13 0 14 -29 9 -33 -6 -35 -5 -35 19 0 17 -5 25 -12 23 -7 -3 -13
-10 -13 -16 0 -14 -10 -16 -29 -5 -18 10 -22 31 -13 66 5 18 3 34 -4 43 -9 11
-8 19 6 34 16 18 14 24 -6 22 -3 -1 -6 12 -7 29 0 16 4 29 10 29 6 0 9 3 5 6
-3 4 1 21 10 38 10 17 16 38 14 46 -2 8 0 12 4 8 4 -3 22 11 42 32 19 22 44
42 55 46 20 6 78 119 78 152 0 10 7 26 15 36 8 11 15 27 15 37 0 9 7 22 15 29
11 9 14 22 10 42 -5 20 -2 30 9 34 14 5 16 33 16 200 0 123 -4 194 -10 194 -5
0 -10 -4 -10 -8 0 -5 -13 -7 -30 -4 -27 4 -30 1 -30 -21 0 -33 -16 -43 -23
-15 -4 12 3 42 13 66 11 25 20 49 20 55 0 5 11 25 25 43 14 18 25 38 25 44 0
6 5 8 10 5 6 -4 10 12 10 39 0 33 -4 46 -14 46 -8 0 -18 -5 -21 -10 -4 -6 -10
-8 -15 -5 -18 11 -40 -8 -40 -36 0 -34 15 -39 23 -7 4 12 9 19 13 15 8 -8 -15
-67 -27 -67 -5 0 -9 6 -10 13 0 6 -4 3 -8 -8 -5 -11 -4 -23 2 -26 15 -10 -25
-60 -45 -55 -14 3 -15 -2 -11 -31 5 -27 2 -37 -16 -49 -23 -17 -28 -53 -9 -72
9 -9 9 -12 -3 -12 -7 0 -31 -5 -52 -11 -33 -9 -38 -14 -35 -36 3 -23 -1 -26
-25 -27 -41 -2 -49 -24 -24 -58 l21 -29 -25 -22 c-15 -12 -35 -40 -47 -63 -18
-37 -18 -41 -3 -51 14 -10 14 -12 -4 -18 -11 -4 -51 -20 -89 -36 -78 -33 -108
-36 -130 -13 -20 19 -20 29 -1 48 14 14 14 17 -5 36 -11 11 -20 23 -20 28 1
13 49 62 62 62 25 1 50 29 58 65 10 44 -6 55 -44 30 -23 -16 -27 -16 -50 2
-35 25 -32 37 16 62 15 8 30 23 34 34 4 14 8 16 14 7 26 -42 50 75 30 146 -13
45 -34 55 -36 16 -2 -41 -37 -74 -83 -78 -44 -4 -66 15 -42 39 14 14 14 54 0
62 -6 4 -16 -1 -23 -10 -13 -19 -96 -33 -96 -17 0 12 -50 62 -61 62 -5 0 1
-17 12 -37 16 -29 17 -34 4 -23 -16 13 -49 68 -50 83 0 4 -6 11 -13 16 -7 4
-10 16 -6 27 5 16 4 16 -5 4 -10 -13 -12 -13 -21 0 -5 8 -10 21 -10 28 0 10
-9 12 -32 7 -45 -10 -66 -25 -73 -52 -5 -22 -53 -43 -99 -43 -13 0 -16 -5 -12
-16 4 -10 -1 -25 -10 -35 -21 -23 -9 -42 22 -35 17 5 24 2 24 -9 0 -8 5 -15
10 -15 18 0 32 -52 21 -77 -11 -24 -2 -30 16 -12 7 7 23 9 39 5 28 -7 23 -21
-11 -29 -11 -3 3 -5 32 -6 28 0 55 4 58 9 5 8 11 7 21 -1 11 -9 18 -8 33 5 13
12 24 14 42 7 21 -8 22 -10 7 -16 -24 -10 -1 -45 29 -45 13 0 23 -4 23 -10 0
-16 -25 -12 -51 9 -16 12 -34 17 -56 14 -33 -5 -47 -23 -18 -23 8 0 15 -7 15
-15 0 -9 -6 -12 -15 -9 -8 4 -15 1 -15 -5 0 -6 -6 -11 -14 -11 -8 0 -18 -9
-21 -21 l-7 -21 -23 22 c-28 26 -24 55 6 40 15 -8 17 -7 13 5 -4 11 -2 13 9 9
8 -3 18 -1 21 4 12 19 -86 23 -141 6 -24 -7 7 -54 35 -54 14 0 35 -12 51 -29
21 -23 31 -27 45 -19 13 8 23 5 41 -12 27 -25 46 -20 37 12 -3 14 -2 19 6 14
7 -4 12 -14 12 -23 0 -13 7 -14 38 -9 20 3 62 9 92 13 30 3 58 10 61 16 4 5
12 0 19 -13 7 -12 8 -20 2 -16 -5 3 -23 -1 -40 -9 -24 -12 -29 -20 -24 -38 3
-12 10 -25 16 -29 8 -5 7 -8 -1 -8 -7 0 -22 9 -32 19 -17 17 -21 18 -32 5 -6
-8 -17 -14 -23 -14 -6 0 -37 -8 -68 -17 -42 -14 -61 -25 -74 -48 -20 -34 -40
-49 -69 -50 -11 0 -29 -5 -40 -11 -24 -13 -33 -12 -62 4 -12 7 -26 11 -31 10
-5 -2 -20 10 -34 26 -21 25 -33 29 -79 31 -66 3 -64 2 -51 18 8 9 -7 12 -69
11 -43 -1 -77 2 -74 6 2 3 -15 6 -38 5 -23 0 -49 2 -57 6 -8 4 -35 17 -60 29
-68 32 -90 46 -104 66 -12 16 -11 22 10 47 13 16 24 32 24 37 0 17 -30 31 -74
33 -25 1 -46 3 -46 5 0 2 7 17 16 33 15 30 15 30 -7 27 -13 -2 -29 -16 -38
-35 -9 -19 -22 -31 -29 -28 -7 3 -15 -2 -18 -9 -3 -8 -13 -12 -24 -9 -31 8
-32 -16 0 -32 36 -19 40 -28 5 -15 -36 14 -33 -11 6 -51 33 -34 34 -41 3 -33
-13 3 -29 26 -44 60 -13 30 -28 54 -33 54 -5 0 -4 7 3 15 13 16 6 65 -10 65
-5 0 -12 -16 -16 -35 -5 -27 -2 -41 11 -55 27 -30 10 -24 -29 11 -29 25 -44
31 -88 32 -64 1 -144 -40 -154 -79 -6 -25 -24 -33 -24 -11 -1 7 -6 5 -14 -5
-16 -22 -26 -23 -26 -3 0 9 11 20 24 27 24 10 54 63 43 74 -3 3 -27 -15 -53
-40 -26 -25 -50 -44 -52 -41 -3 3 -5 31 -3 63 1 55 3 59 56 109 30 29 55 55
55 57 0 3 -22 4 -49 3 -47 -2 -50 -1 -55 26 -9 44 -8 50 11 43 9 -4 19 -2 23
3 4 7 18 7 43 0 25 -7 43 -7 56 1 26 13 34 13 29 -2 -4 -12 61 -52 70 -43 3 2
-3 7 -12 11 -21 8 -21 24 1 24 16 0 16 1 0 13 -10 7 -17 30 -19 62 -3 45 -1
50 25 63 15 7 27 18 27 25 0 7 3 22 6 35 6 21 4 22 -49 22 -35 0 -57 -5 -60
-12 -4 -10 -6 -10 -6 -1 -1 9 -66 12 -260 13 -223 0 -260 -2 -265 -15z m1129
-679 c36 -2 75 -10 87 -18 13 -9 37 -18 55 -22 17 -4 39 -16 48 -26 22 -25 76
-35 103 -21 13 7 23 7 27 2 3 -5 -4 -13 -16 -16 -17 -6 -20 -12 -14 -33 3 -15
7 -45 8 -66 2 -35 6 -41 32 -48 41 -12 74 -4 159 36 82 39 100 56 91 86 -6 17
-12 20 -41 14 -22 -4 -34 -2 -34 5 0 6 15 11 34 11 36 0 66 -21 66 -46 0 -10
16 -14 63 -15 l62 -2 -73 -12 c-66 -11 -78 -17 -115 -54 -35 -34 -40 -44 -31
-59 24 -38 187 -32 243 10 13 10 38 18 55 17 l31 -1 -35 -8 c-18 -5 -42 -20
-53 -34 -14 -20 -28 -26 -55 -26 -21 0 -48 -7 -62 -15 -40 -23 -42 -23 -112
-30 -70 -7 -115 -32 -105 -58 3 -8 21 -21 40 -30 38 -18 54 -44 37 -61 -7 -7
-10 -6 -10 2 0 7 -4 12 -10 12 -5 0 -10 -7 -10 -15 0 -23 -19 -18 -29 8 -5 13
-17 29 -27 37 -16 14 -17 13 -7 -5 8 -13 8 -25 1 -38 -9 -18 -11 -18 -29 -1
-14 13 -19 14 -19 3 0 -8 -7 -4 -16 9 -18 26 -16 31 17 37 23 5 49 30 49 47 0
11 -32 25 -55 23 -52 -4 -87 -19 -96 -42 -5 -14 -14 -22 -22 -19 -6 3 -20 9
-29 12 -22 8 -24 24 -3 24 8 0 15 4 15 10 0 5 25 17 55 25 47 14 55 20 55 40
0 13 -7 30 -16 37 -8 7 -29 25 -46 41 -22 19 -42 27 -72 28 l-41 1 50 15 c28
8 56 16 62 18 22 7 2 36 -46 66 -40 26 -42 29 -16 23 17 -4 41 -14 55 -23 24
-15 24 -15 11 2 -17 21 -74 47 -105 47 -20 1 -20 1 -3 14 23 18 10 26 -36 24
-20 -1 -42 4 -49 10 -8 6 -33 11 -57 10 -24 0 -47 5 -51 12 -4 7 -13 10 -18 6
-12 -7 -52 14 -52 27 0 5 9 5 20 2 12 -4 50 -8 85 -9z m1358 -128 c8 -22 -13
-48 -38 -48 -34 0 -41 -18 -11 -30 28 -10 31 -17 17 -39 -6 -10 -19 -12 -45
-7 -28 5 -36 4 -36 -7 0 -8 7 -17 15 -21 19 -7 19 -30 0 -46 -12 -10 -21 -7
-47 15 l-33 28 -5 -24 c-7 -30 -63 -47 -111 -33 -42 12 -54 40 -13 30 80 -20
81 -19 100 13 10 17 24 32 31 32 7 1 18 3 23 4 6 1 15 3 20 4 6 0 10 10 10 21
0 16 -7 20 -30 20 -16 0 -30 5 -30 11 0 7 11 9 27 6 54 -10 85 29 41 51 -22
10 -22 11 7 11 17 1 37 6 45 11 21 14 58 12 63 -2z m-1148 -658 c3 -5 23 -10
43 -10 20 0 43 -4 51 -9 9 -6 21 -5 32 2 14 8 27 8 51 -1 18 -6 43 -9 55 -6
13 4 31 3 40 -2 27 -11 37 -11 51 0 11 7 11 11 0 17 -9 6 -4 9 15 9 15 0 27
-4 27 -9 0 -5 28 -14 63 -20 49 -8 68 -17 90 -41 41 -46 37 -79 -18 -118 l-44
-31 -73 20 c-40 11 -80 26 -88 34 -8 7 -34 18 -57 24 -24 6 -60 16 -82 21 -49
13 -88 13 -96 0 -3 -6 -15 -5 -31 2 -20 10 -27 9 -35 -3 -14 -22 -11 -28 16
-41 24 -11 34 -28 16 -28 -4 0 -6 -10 -4 -23 3 -13 -4 -39 -15 -58 -16 -28
-25 -34 -51 -32 -25 1 -31 -3 -29 -15 2 -10 11 -16 21 -14 45 8 -10 -27 -84
-53 -34 -12 -39 -12 -39 0 0 8 7 15 15 15 8 0 16 6 16 13 1 6 2 19 3 27 0 9
10 15 24 14 12 0 22 3 22 7 0 12 -38 21 -59 14 -14 -4 -21 0 -25 13 -4 10 -20
34 -36 52 -17 19 -29 39 -27 44 4 12 51 12 105 0 42 -8 77 9 93 47 9 23 9 32
-1 44 -10 12 -9 15 4 15 15 0 15 2 -1 28 -10 16 -11 22 -3 15 8 -7 28 -13 45
-13 33 0 60 -16 68 -40 4 -12 6 -12 12 3 9 20 -18 44 -69 63 -16 6 -32 16 -34
22 -5 15 14 16 23 2z m545 -16 c25 -9 52 -23 60 -32 21 -23 50 -86 50 -108 0
-9 8 -26 17 -36 16 -18 16 -20 -12 -43 -20 -17 -38 -23 -53 -20 -16 4 -21 2
-17 -6 5 -7 1 -9 -11 -5 -11 3 -38 10 -62 15 -48 10 -73 27 -29 19 20 -4 25
-2 17 7 -7 9 0 17 25 31 42 22 50 43 35 89 -13 40 -59 79 -110 93 l-35 10 40
1 c22 0 60 -6 85 -15z m-896 -165 c-11 -18 -8 -88 5 -121 13 -35 56 -56 108
-53 38 3 43 0 52 -27 9 -26 7 -33 -16 -56 l-26 -26 -17 21 c-9 11 -35 30 -59
42 -23 12 -59 40 -79 61 -35 38 -37 43 -32 90 4 42 10 54 35 70 31 20 42 20
29 -1z m-84 -272 c0 -18 30 -44 55 -48 11 -1 35 1 54 5 24 6 30 11 20 17 -12
7 -11 11 3 25 16 17 18 17 37 0 12 -11 19 -31 19 -54 1 -66 8 -93 31 -108 12
-9 20 -22 17 -29 -7 -19 30 -48 53 -42 15 3 21 -2 27 -27 4 -17 6 -46 5 -63
-2 -21 6 -44 19 -63 26 -37 16 -64 -11 -29 -24 31 -24 9 0 -34 11 -20 17 -44
14 -60 -5 -23 -2 -27 18 -28 13 -1 28 -1 33 0 4 1 14 -3 22 -10 7 -6 17 -8 22
-5 6 3 15 -1 21 -8 10 -11 7 -18 -11 -30 -12 -9 -26 -16 -31 -16 -4 0 -22 -13
-39 -29 l-32 -30 -11 22 c-10 20 -18 22 -75 19 -60 -2 -62 -1 -47 16 15 16 18
65 5 78 -3 3 -20 6 -36 6 -35 1 -52 27 -27 40 13 8 13 12 0 38 -8 16 -15 41
-15 56 0 21 -4 25 -20 21 -23 -6 -26 3 -8 21 9 9 6 12 -16 12 -21 0 -26 3 -18
13 21 26 23 54 5 59 -11 3 -23 23 -32 51 -12 42 -16 47 -42 47 -19 0 -29 5
-29 15 0 9 -9 15 -21 15 -18 0 -19 3 -9 15 10 12 8 16 -13 24 -29 11 -77 54
-77 69 0 25 21 20 65 -14 42 -31 49 -34 62 -21 12 11 12 19 4 35 -14 26 -14
42 -1 42 6 0 10 -6 10 -13z m-505 -187 c-3 -5 -2 -10 3 -10 7 0 32 -147 32
-189 0 -19 -25 -12 -56 14 -16 14 -36 27 -45 30 -12 4 -15 13 -11 27 3 12 1
19 -4 15 -5 -3 -9 4 -8 16 2 36 21 74 46 91 25 18 53 22 43 6z m1889 -44 c8
-19 24 -39 35 -46 12 -6 21 -16 21 -23 0 -7 16 -27 35 -46 28 -26 35 -40 35
-71 0 -56 -8 -70 -41 -70 -23 0 -29 5 -29 21 0 11 5 29 10 40 6 11 7 26 3 33
-9 17 -80 69 -105 79 -10 3 -18 15 -18 25 0 10 -9 23 -21 28 l-20 9 21 28 c30
37 56 35 74 -7z m-596 -130 c15 -7 44 -16 65 -20 42 -8 48 -22 13 -36 -13 -5
-32 -23 -42 -39 -10 -17 -22 -31 -26 -31 -4 0 -8 -7 -8 -15 0 -16 58 -30 90
-22 11 3 20 2 20 -2 0 -4 43 -35 95 -69 80 -52 98 -69 120 -111 34 -68 32 -86
-4 -30 -54 84 -155 154 -271 189 -63 19 -178 19 -234 0 -20 -6 -40 -10 -42 -7
-6 6 80 35 116 39 21 3 25 8 22 33 l-3 30 31 -32 c27 -29 50 -42 50 -29 0 2
-11 28 -25 58 -31 67 -32 83 -5 68 24 -13 26 -3 3 22 -20 22 -4 24 35 4z"/>
<path d="M3630 1801 c0 -5 -9 -11 -20 -13 -12 -2 -19 -7 -18 -12 2 -5 -18 -15
-45 -23 -44 -13 -47 -16 -41 -41 11 -49 13 -52 49 -52 44 0 64 32 45 71 l-11
24 20 -23 c11 -12 21 -27 23 -32 2 -6 27 -8 65 -4 58 6 80 24 29 24 -34 0 -76
37 -76 66 0 13 -4 24 -10 24 -5 0 -10 -4 -10 -9z"/>
<path d="M2800 2731 c0 -5 -13 -14 -29 -21 -59 -24 -94 -91 -41 -77 12 3 33
-8 56 -29 49 -45 36 -61 -18 -22 -28 20 -73 -1 -74 -35 -1 -16 -6 -33 -12 -39
-8 -8 -5 -21 9 -47 10 -19 19 -43 19 -53 0 -31 21 -31 48 1 24 27 33 31 82 32
71 1 126 -10 141 -27 6 -8 17 -14 24 -14 8 0 27 -11 43 -25 18 -15 37 -23 46
-19 9 3 16 1 16 -5 0 -6 5 -11 10 -11 7 0 7 7 0 21 -9 15 -8 24 1 36 11 12 10
17 -4 28 -15 11 -15 14 -2 25 10 8 12 18 6 29 -5 9 -7 34 -4 56 2 22 -1 49 -8
61 -9 18 -8 27 4 44 18 27 12 50 -14 50 -21 0 -92 31 -97 43 -7 14 -47 7 -59
-12 -19 -30 -50 -32 -72 -5 -18 23 -71 34 -71 15z"/>
<path d="M3585 2693 c4 -27 10 -52 15 -57 13 -14 57 2 83 29 14 16 40 28 67
33 31 5 46 13 48 25 3 15 -8 17 -108 17 l-112 0 7 -47z"/>
<path d="M4046 2719 c-20 -20 -36 -25 -36 -11 0 4 -10 8 -21 9 -20 2 -21 -2
-15 -39 11 -69 20 -78 79 -78 30 1 60 7 71 15 23 17 62 20 71 5 10 -17 40 -11
75 15 33 25 80 34 80 16 0 -5 -9 -13 -21 -16 -21 -7 -21 -7 -1 -21 13 -9 18
-21 15 -33 -3 -11 0 -28 6 -38 10 -17 10 -17 11 3 0 11 7 29 15 40 14 19 15
19 21 -3 8 -27 4 -27 42 -7 36 17 40 29 16 42 -15 8 -15 11 5 31 11 11 21 23
21 26 0 2 -17 7 -37 10 -21 4 -45 9 -53 12 -8 3 -32 7 -54 9 -44 5 -59 12 -51
25 4 5 -18 9 -50 9 -70 0 -71 -23 -2 -44 18 -6 24 -36 6 -36 -5 0 -7 5 -4 10
3 6 -2 10 -12 10 -11 0 -24 5 -31 12 -9 9 -12 9 -12 -1 0 -8 -8 -20 -17 -27
-21 -16 -37 -18 -28 -4 9 14 -9 12 -24 -2 -10 -11 -12 -10 -9 2 2 9 -4 15 -14
15 -25 0 -30 11 -13 25 18 15 20 40 3 39 -7 0 -22 -9 -32 -20z"/>
<path d="M1458 1393 c-4 -39 -47 -62 -82 -44 -23 13 -28 11 -65 -19 -54 -42
-71 -68 -71 -105 0 -57 57 -123 95 -109 9 4 31 -2 50 -12 33 -18 35 -17 55 1
12 11 42 22 68 25 36 4 49 10 58 29 7 13 18 27 26 32 34 21 108 -29 108 -73 0
-16 -5 -19 -22 -15 -12 4 -27 2 -32 -2 -6 -5 -29 -14 -51 -21 -33 -11 -37 -14
-20 -20 11 -4 28 -3 38 2 11 5 40 9 65 7 26 -1 67 -1 92 0 40 1 47 5 60 34 11
23 23 33 44 35 25 3 28 1 23 -17 -6 -24 14 -29 32 -7 9 10 9 24 2 48 -5 18
-10 25 -10 15 -1 -14 -6 -17 -22 -12 -12 4 -37 0 -60 -10 -31 -15 -41 -15 -54
-5 -12 10 -18 10 -30 0 -10 -9 -15 -9 -15 -1 0 6 -19 24 -42 41 -32 24 -51 30
-90 30 -30 0 -47 4 -43 10 8 13 -30 13 -78 -1 -50 -13 -71 -5 -29 12 48 20 39
30 -13 15 -48 -15 -56 -9 -26 18 12 11 31 16 49 15 22 -3 40 6 75 38 51 44 59
58 27 48 -11 -4 -20 -2 -20 4 0 6 -5 11 -11 11 -6 0 -8 -9 -4 -20 4 -11 2 -20
-4 -20 -6 0 -12 10 -12 23 -1 20 -2 20 -6 2 -10 -44 -12 -46 -34 -35 -20 11
-20 13 -4 30 10 11 15 26 12 35 -10 24 -25 18 -29 -12z"/>
<path d="M1845 1296 c17 -25 13 -66 -6 -66 -21 0 -49 21 -49 38 0 14 -10 17
-52 19 -28 1 -55 8 -60 15 -6 10 -12 8 -23 -7 -14 -18 -12 -23 39 -72 30 -29
57 -53 60 -53 2 0 7 14 11 31 8 37 28 33 36 -7 3 -18 10 -28 20 -26 21 5 39
23 39 38 0 8 11 14 26 14 22 0 24 3 18 23 -8 26 -32 55 -57 69 -18 9 -18 8 -2
-16z"/>
</g>
</svg>
